<svg width="24" height="24" viewBox="0 0 24 24" fill="none" xmlns="http://www.w3.org/2000/svg">
<g clip-path="url(#clip0_86_18)">
<path d="M19 9L20.25 6.25L23 5L20.25 3.75L19 1L17.75 3.75L15 5L17.75 6.25L19 9ZM11.5 9.5L9 4L6.5 9.5L1 12L6.5 14.5L9 20L11.5 14.5L17 12L11.5 9.5ZM19 15L17.75 17.75L15 19L17.75 20.25L19 23L20.25 20.25L23 19L20.25 17.75L19 15Z" fill="url(#paint0_linear_86_18)"/>
</g>
<defs>
<linearGradient id="paint0_linear_86_18" x1="1" y1="12" x2="23" y2="12" gradientUnits="userSpaceOnUse">
<stop stop-color="#64B4FF"/>
<stop offset="1" stop-color="#C489FF"/>
</linearGradient>
<clipPath id="clip0_86_18">
<rect width="24" height="24" fill="white"/>
</clipPath>
</defs>
</svg>
