<svg width="21" height="21" viewBox="0 0 21 21" fill="none" xmlns="http://www.w3.org/2000/svg">
<g clip-path="url(#clip0_96_114)">
<path fill-rule="evenodd" clip-rule="evenodd" d="M11.3639 5.02226C11.8931 4.72129 12.25 4.15233 12.25 3.5C12.25 2.5335 11.4665 1.75 10.5 1.75C9.53347 1.75 8.75 2.5335 8.75 3.5C8.75 4.15379 9.10849 4.72385 9.6397 5.02429L9.63183 5.04026C9.05809 6.23604 8.26203 7.94913 7.03206 8.59225C6.02294 9.11986 4.573 8.85448 3.4968 8.65757C3.44936 7.97583 2.8813 7.4375 2.1875 7.4375C1.46262 7.4375 0.875 8.02512 0.875 8.75C0.875 9.39286 1.33714 9.92775 1.9473 10.0405L4.52606 16.6981C4.91754 17.7089 5.88998 18.375 6.97385 18.375H14.0262C15.11 18.375 16.0824 17.7089 16.474 16.6981L19.0527 10.0405C19.6628 9.92775 20.125 9.39286 20.125 8.75C20.125 8.02512 19.5373 7.4375 18.8125 7.4375C18.132 7.4375 17.5725 7.95536 17.5065 8.61849C16.4048 8.76137 14.9845 8.94364 13.968 8.4121C12.7627 7.78191 11.9555 6.18691 11.3639 5.02226ZM10.5222 7.09387C11.194 8.18364 11.9994 9.3576 13.157 9.96292C14.3188 10.5703 15.7475 10.5395 17.0251 10.4301L14.8421 16.0661C14.7116 16.4029 14.3874 16.625 14.0262 16.625H6.97385C6.61255 16.625 6.28841 16.4029 6.15792 16.0661L4.00466 10.507C5.26389 10.6677 6.68845 10.7467 7.84294 10.1431C9.04794 9.513 9.85513 8.24288 10.5222 7.09387Z" fill="#FFB84D"/>
</g>
<defs>
<clipPath id="clip0_96_114">
<rect width="21" height="21" fill="white"/>
</clipPath>
</defs>
</svg>
